PathFileType	4	(X/Y/Z) shrug_2kg_2.trc																										
DataRate	CameraRate	NumFrames	NumMarkers	Units	OrigDataRate	OrigDataStartFrame	OrigNumFrames																					
100	100	38	9	mm	100	121	480																					
Frame#	Time	gu			centelbow			EpL			centpxt8			centijc7			ij			ts			aa			ai		
		X1	Y1	Z1	X2	Y2	Z2	X3	Y3	Z3	X4	Y4	Z4	X5	Y5	Z5	X6	Y6	Z6	X7	Y7	Z7	X8	Y8	Z8	X9	Y9	Z9  
120	1.2	-104.846	13.326	162.233	-117.374	-228.778	209.278	-107.179	-219.565	238.443	-46.816	-153.158	-8.669	-46.816	31.938	-8.669	0	0	0	-133.467	38.919	34.267	-134.05	52.111	152.802	-149.269	-72.116	51.791
121	1.21	-106.124	15.39	161.502	-116.917	-226.516	209.973	-107.009	-217.035	239.151	-46.816	-153.158	-8.669	-46.816	31.938	-8.669	0	0	0	-133.945	39.597	33.035	-135.813	54.032	151.411	-149.139	-71.358	51.575
122	1.22	-106.947	17.433	160.514	-116.002	-224.25	210.428	-106.368	-214.504	239.61	-46.816	-153.158	-8.669	-46.816	31.938	-8.669	0	0	0	-133.739	40.415	31.595	-136.841	56.069	149.79	-148.312	-70.448	51.154
123	1.23	-107.513	19.379	159.846	-114.934	-222.044	211.266	-105.586	-212.031	240.451	-46.816	-153.158	-8.669	-46.816	31.938	-8.669	0	0	0	-132.75	41.361	30.116	-137.132	58.26	148.099	-146.71	-69.39	50.729
124	1.24	-108.357	21.15	159.501	-114.295	-219.978	212.473	-105.25	-209.699	241.661	-46.816	-153.158	-8.669	-46.816	31.938	-8.669	0	0	0	-131.758	42.009	28.703	-137.529	60.189	146.436	-145.173	-68.601	50.406
125	1.25	-109.765	22.97	159.051	-114.312	-217.851	213.538	-105.575	-207.316	242.729	-46.816	-153.158	-8.669	-46.816	31.938	-8.669	0	0	0	-131.418	42.241	27.57	-138.71	61.679	145.017	-144.393	-68.208	50.337
126	1.26	-111.475	24.922	158.53	-114.792	-215.607	214.382	-106.364	-204.843	243.58	-46.816	-153.158	-8.669	-46.816	31.938	-8.669	0	0	0	-131.667	42.241	27.038	-140.587	62.842	144.174	-144.34	-68.038	50.775
127	1.27	-113.05	26.602	158.531	-115.551	-213.662	215.553	-107.443	-202.708	244.771	-46.816	-153.158	-8.669	-46.816	31.938	-8.669	0	0	0	-131.965	42.084	27.117	-142.523	63.75	143.925	-144.507	-68.019	51.728
128	1.28	-114.299	28.096	158.929	-116.334	-211.913	217.03	-108.553	-200.791	246.274	-46.816	-153.158	-8.669	-46.816	31.938	-8.669	0	0	0	-131.952	42.016	27.044	-143.986	64.712	143.512	-144.441	-67.898	52.509
129	1.29	-115.372	30.066	158.783	-116.872	-209.666	218.036	-109.403	-198.368	247.293	-46.816	-153.158	-8.669	-46.816	31.938	-8.669	0	0	0	-131.805	42.386	26.099	-145.068	66.111	142.228	-144.15	-67.334	52.457
130	1.3	-116.491	32.478	157.906	-117.275	-206.946	218.403	-110.094	-195.458	247.659	-46.816	-153.158	-8.669	-46.816	31.938	-8.669	0	0	0	-131.839	43.021	24.681	-146.188	67.726	140.476	-143.923	-66.513	51.922
131	1.31	-117.695	34.523	157.106	-117.904	-204.595	218.808	-111.01	-192.928	248.062	-46.816	-153.158	-8.669	-46.816	31.938	-8.669	0	0	0	-132.094	43.283	23.783	-147.555	68.865	139.244	-143.946	-66.077	51.81
132	1.32	-118.945	35.722	156.833	-118.969	-203.128	219.564	-112.377	-191.314	248.829	-46.816	-153.158	-8.669	-46.816	31.938	-8.669	0	0	0	-132.431	42.989	23.665	-149.086	69.339	138.787	-144.167	-66.21	52.361
133	1.33	-120.167	36.309	156.756	-120.323	-202.317	220.332	-114.033	-190.387	249.616	-46.816	-153.158	-8.669	-46.816	31.938	-8.669	0	0	0	-132.583	42.668	23.676	-150.419	69.705	138.462	-144.263	-66.38	52.963
134	1.34	-121.197	36.752	156.521	-121.547	-201.66	220.892	-115.542	-189.622	250.191	-46.816	-153.158	-8.669	-46.816	31.938	-8.669	0	0	0	-132.379	42.619	23.28	-151.258	70.324	137.739	-144.013	-66.276	53.15
135	1.35	-121.964	37.52	155.989	-122.278	-200.652	221.244	-116.539	-188.491	250.546	-46.816	-153.158	-8.669	-46.816	31.938	-8.669	0	0	0	-132.119	42.641	22.488	-151.86	71.056	136.627	-143.696	-66.082	52.998
136	1.36	-122.569	38.947	155.13	-122.445	-198.958	221.353	-116.957	-186.656	250.644	-46.816	-153.158	-8.669	-46.816	31.938	-8.669	0	0	0	-132.144	42.646	21.493	-152.634	71.821	135.308	-143.606	-65.888	52.713
137	1.37	-123.224	40.935	154.191	-122.411	-196.686	221.42	-117.177	-184.236	250.695	-46.816	-153.158	-8.669	-46.816	31.938	-8.669	0	0	0	-132.283	42.675	20.639	-153.554	72.651	134.102	-143.592	-65.654	52.617
138	1.38	-124.153	43.077	153.423	-122.761	-194.247	221.684	-117.788	-181.648	250.94	-46.816	-153.158	-8.669	-46.816	31.938	-8.669	0	0	0	-132.272	42.663	20.222	-154.462	73.48	133.282	-143.508	-65.44	52.98
139	1.39	-125.284	44.905	152.683	-123.671	-192.141	221.898	-118.945	-179.411	251.139	-46.816	-153.158	-8.669	-46.816	31.938	-8.669	0	0	0	-132.176	42.53	19.955	-155.329	74.204	132.585	-143.474	-65.33	53.484
140	1.4	-126.16	46.001	151.863	-124.712	-190.842	221.774	-120.194	-178.022	251.008	-46.816	-153.158	-8.669	-46.816	31.938	-8.669	0	0	0	-132.005	42.334	19.292	-155.98	74.827	131.516	-143.431	-65.283	53.549
141	1.41	-126.5	46.407	151.239	-125.483	-190.313	221.575	-121.145	-177.441	250.814	-46.816	-153.158	-8.669	-46.816	31.938	-8.669	0	0	0	-131.638	42.29	18.343	-156.262	75.541	130.204	-143.167	-65.097	53.283
142	1.42	-126.614	46.84	151.084	-126.057	-189.773	221.783	-121.91	-176.856	251.03	-46.816	-153.158	-8.669	-46.816	31.938	-8.669	0	0	0	-131.178	42.481	17.776	-156.407	76.464	129.281	-142.776	-64.678	53.385
143	1.43	-126.893	47.889	151.3	-126.604	-188.576	222.492	-122.682	-175.595	251.742	-46.816	-153.158	-8.669	-46.816	31.938	-8.669	0	0	0	-130.785	42.601	17.729	-156.642	77.322	128.863	-142.458	-64.324	54.014
144	1.44	-127.253	49.209	151.583	-127.042	-187.073	223.38	-123.36	-174.011	252.624	-46.816	-153.158	-8.669	-46.816	31.938	-8.669	0	0	0	-130.443	42.369	17.582	-156.878	77.811	128.352	-142.192	-64.32	54.527
145	1.45	-127.428	49.992	151.841	-127.289	-186.122	224.19	-123.815	-172.985	253.427	-46.816	-153.158	-8.669	-46.816	31.938	-8.669	0	0	0	-130.155	42.035	16.997	-157.069	78.117	127.444	-141.942	-64.442	54.539
146	1.46	-127.526	50.022	152.179	-127.524	-185.968	224.933	-124.203	-172.778	254.163	-46.816	-153.158	-8.669	-46.816	31.938	-8.669	0	0	0	-130.036	41.955	16.356	-157.352	78.555	126.534	-141.816	-64.347	54.39
147	1.47	-127.843	49.843	152.406	-127.923	-186.054	225.46	-124.702	-172.824	254.684	-46.816	-153.158	-8.669	-46.816	31.938	-8.669	0	0	0	-130.12	42.083	16.005	-157.771	79.089	125.963	-141.885	-64.081	54.429
148	1.48	-128.265	49.892	152.162	-128.312	-185.921	225.486	-125.146	-172.656	254.7	-46.816	-153.158	-8.669	-46.816	31.938	-8.669	0	0	0	-130.28	42.168	15.889	-158.212	79.5	125.666	-142.055	-63.884	54.621
149	1.49	-128.409	50.034	151.582	-128.406	-185.699	225.165	-125.262	-172.401	254.366	-46.816	-153.158	-8.669	-46.816	31.938	-8.669	0	0	0	-130.397	42.097	15.837	-158.583	79.709	125.454	-142.212	-63.856	54.825
150	1.5	-128.272	50.116	151.024	-128.215	-185.539	224.857	-125.084	-172.209	254.045	-46.816	-153.158	-8.669	-46.816	31.938	-8.669	0	0	0	-130.442	41.971	15.623	-158.855	79.844	125.091	-142.305	-63.889	54.848
151	1.51	-128.21	50.198	150.499	-128	-185.38	224.575	-124.886	-172.017	253.749	-46.816	-153.158	-8.669	-46.816	31.938	-8.669	0	0	0	-130.375	41.922	15.122	-158.968	80.04	124.457	-142.27	-63.851	54.573
152	1.52	-128.377	50.184	150.087	-127.941	-185.334	224.355	-124.857	-171.944	253.521	-46.816	-153.158	-8.669	-46.816	31.938	-8.669	0	0	0	-130.17	41.857	14.614	-158.916	80.18	123.839	-142.088	-63.842	54.255
153	1.53	-128.613	49.944	150.15	-127.983	-185.546	224.503	-124.946	-172.142	253.667	-46.816	-153.158	-8.669	-46.816	31.938	-8.669	0	0	0	-129.929	41.54	14.533	-158.84	80.007	123.662	-141.892	-64.107	54.3
154	1.54	-128.794	49.658	150.678	-127.992	-185.831	225.031	-125.004	-172.424	254.198	-46.816	-153.158	-8.669	-46.816	31.938	-8.669	0	0	0	-129.769	41.008	14.937	-158.861	79.581	123.981	-141.801	-64.599	54.785
155	1.55	-129.02	49.604	151.247	-127.995	-185.891	225.582	-125.045	-172.482	254.753	-46.816	-153.158	-8.669	-46.816	31.938	-8.669	0	0	0	-129.714	40.641	15.47	-158.979	79.315	124.432	-141.786	-64.93	55.403
156	1.56	-129.413	49.758	151.6	-128.111	-185.734	225.94	-125.188	-172.321	255.111	-46.816	-153.158	-8.669	-46.816	31.938	-8.669	0	0	0	-129.811	40.599	15.709	-159.216	79.388	124.592	-141.858	-64.931	55.759
157	1.57	-129.829	49.826	151.688	-128.269	-185.654	226.061	-125.36	-172.234	255.231	-46.816	-153.158	-8.669	-46.816	31.938	-8.669	0	0	0	-130.098	40.626	15.507	-159.594	79.536	124.322	-142.08	-64.86	55.69
